# xmcd
#
# Track frame offsets:
#	150
#	2139
#	19613
#	34770
#	48846
#	64231
#	81235
#	94613
#	107520
#	122742
#	138017
#	153382
#	172591
#	181519
#	200650
#	217241
#
# Disc length: 3080 seconds
#
# Revision: 0
# Processed by: cddbd v1.5.1PL0 Copyright (c) Steve Scherf et al.
# Submitted via: EasyCDDAExtractor 8.0.0.1
#
DISCID=c50c0610
DTITLE=Pérola Negra - Vol. 1
DYEAR=2004
DGENRE=Forró
TTITLE0=Abertura
TTITLE1=O amasso
TTITLE2=A dança do arrocha
TTITLE3=Melô do arrocha
TTITLE4=Eu duvído
TTITLE5=Tapinha
TTITLE6=Como vou deixar você
TTITLE7=Hoje a festa é nossa (Kinho)
TTITLE8=Corote
TTITLE9=Do jeito que eu sou (Jr. Brown)
TTITLE10=Meu mel
TTITLE11=Diz que não ligo pros teus sentimentos
TTITLE12=Mil e um motivos
TTITLE13=Já chorei pra valer
TTITLE14=Coração
TTITLE15=Aconteceu comigo
EXTD=
EXTT0=
EXTT1=
EXTT2=
EXTT3=
EXTT4=
EXTT5=
EXTT6=
EXTT7=
EXTT8=
EXTT9=
EXTT10=
EXTT11=
EXTT12=
EXTT13=
EXTT14=
EXTT15=
PLAYORDER=
